# xmcd
#
# Track frame offsets: 
#        150
#        13440
#        26275
#        38845
#        53673
#        67450
#        81123
#        98335
#        111602
#        124322
#        137418
#        155170
#        170830
#        184907
#        200124
#        213196
#        223119
#        234692
#        247839
#        270466
#        283726
#        301186
#        310276
#        331561
#
# Disc length: 4596 seconds
#
# Revision: 0
# Processed by: cddbd v1.5.2PL0 Copyright (c) Steve Scherf et al.
# Submitted via: ExactAudioCopy v1.1
#
DISCID=6511f218
DTITLE=Ted Taylor, Reuben Bell, Eddie Giles - Sound City Soul Brothers
DYEAR=2007
DGENRE=R&B
TTITLE0=Ted Taylor - Somebody's Gettin' It
TTITLE1=Ted Taylor - Steal Away
TTITLE2=Ted Taylor - Standing In The Wings Of A Heartache
TTITLE3=Ted Taylor - Caught Up In A Good Woman's Love
TTITLE4=Ted Taylor - I'm Gonna Hate Myself In The Morning
TTITLE5=Ted Taylor - It Takes A Fool (To Be A Fool Again)
TTITLE6=Ted Taylor - Everybody's Stealing
TTITLE7=Ted Taylor - Looking Back
TTITLE8=Reuben Bell - I'll Be Your Woman
TTITLE9=Reuben Bell - I Still Have To Say Goodbye
TTITLE10=Reuben Bell - Asking For The Truth
TTITLE11=Reuben Bell - Kiss Tomorrow Goodbye
TTITLE12=Reuben Bell - Meet Me Half Way
TTITLE13=Reuben Bell - One Sided Love Affair
TTITLE14=Reuben Bell - Superjock
TTITLE15=Eddie Giles - Are You Living With The One You're Loving With
TTITLE16=Eddie Giles - Baby I Care
TTITLE17=Eddie Giles - How Many Times
TTITLE18=Eddie Giles - I Can't Get Over You
TTITLE19=Eddie Giles - Married Lady
TTITLE20=Eddie Giles - It Takes Me All Night
TTITLE21=Eddie Giles - Swearing Out A Want
TTITLE22=Eddie Giles - There Must Be A Place
TTITLE23=Eddie Giles - You're My Sweet Inspiration
EXTD=
EXTT0=
EXTT1=
EXTT2=
EXTT3=
EXTT4=
EXTT5=
EXTT6=
EXTT7=
EXTT8=
EXTT9=
EXTT10=
EXTT11=
EXTT12=
EXTT13=
EXTT14=
EXTT15=
EXTT16=
EXTT17=
EXTT18=
EXTT19=
EXTT20=
EXTT21=
EXTT22=
EXTT23=
PLAYORDER=
